<mxfile host="app.diagrams.net" modified="2023-05-31T06:38:41.783Z" agent="Mozilla/5.0 (Windows NT 10.0; Win64; x64; rv:109.0) Gecko/20100101 Firefox/113.0" etag="oj2F19mIIWLRT0ZtFm6b" version="21.3.6">
  <diagram name="Sayfa -1" id="slx12zVrkGKdjyQivLbg">
    <mxGraphModel dx="483" dy="1734" grid="1" gridSize="10" guides="1" tooltips="1" connect="1" arrows="1" fold="1" page="1" pageScale="1" pageWidth="827" pageHeight="1169" math="0" shadow="0">
      <root>
        <mxCell id="0" />
        <mxCell id="1" parent="0" />
        <mxCell id="yI-KKn5nenXHCiCo1QlS-6" value="Home" style="shape=umlFrame;whiteSpace=wrap;html=1;pointerEvents=0;recursiveResize=0;container=1;collapsible=0;width=186;height=20;" parent="1" vertex="1">
          <mxGeometry x="140" y="-410" width="706" height="540" as="geometry" />
        </mxCell>
        <mxCell id="yI-KKn5nenXHCiCo1QlS-7" value="&lt;div&gt;User&lt;/div&gt;&lt;div&gt;&lt;br&gt;&lt;/div&gt;" style="shape=umlActor;verticalLabelPosition=bottom;verticalAlign=top;html=1;outlineConnect=0;" parent="yI-KKn5nenXHCiCo1QlS-6" vertex="1">
          <mxGeometry x="40" y="100" width="30" height="60" as="geometry" />
        </mxCell>
        <mxCell id="yI-KKn5nenXHCiCo1QlS-8" value="" style="html=1;points=[];perimeter=orthogonalPerimeter;fillColor=strokeColor;align=left;verticalAlign=top;spacingLeft=10;" parent="yI-KKn5nenXHCiCo1QlS-6" vertex="1">
          <mxGeometry x="253.5" y="190" width="5" height="130" as="geometry" />
        </mxCell>
        <mxCell id="yI-KKn5nenXHCiCo1QlS-9" value="" style="html=1;verticalAlign=bottom;labelBackgroundColor=none;endArrow=none;endFill=0;rounded=0;dashed=1;" parent="yI-KKn5nenXHCiCo1QlS-6" source="yI-KKn5nenXHCiCo1QlS-13" edge="1">
          <mxGeometry width="160" relative="1" as="geometry">
            <mxPoint x="54.5" y="649" as="sourcePoint" />
            <mxPoint x="54.5" y="190" as="targetPoint" />
            <Array as="points" />
          </mxGeometry>
        </mxCell>
        <mxCell id="yI-KKn5nenXHCiCo1QlS-10" value=":MainScreen" style="shape=umlLifeline;perimeter=lifelinePerimeter;whiteSpace=wrap;html=1;container=1;dropTarget=0;collapsible=0;recursiveResize=0;outlineConnect=0;portConstraint=eastwest;newEdgeStyle={&quot;edgeStyle&quot;:&quot;elbowEdgeStyle&quot;,&quot;elbow&quot;:&quot;vertical&quot;,&quot;curved&quot;:0,&quot;rounded&quot;:0};" parent="yI-KKn5nenXHCiCo1QlS-6" vertex="1">
          <mxGeometry x="206" y="100" width="100" height="410" as="geometry" />
        </mxCell>
        <mxCell id="yI-KKn5nenXHCiCo1QlS-12" value="" style="html=1;verticalAlign=bottom;labelBackgroundColor=none;endArrow=none;endFill=0;rounded=0;dashed=1;" parent="yI-KKn5nenXHCiCo1QlS-6" target="yI-KKn5nenXHCiCo1QlS-13" edge="1">
          <mxGeometry width="160" relative="1" as="geometry">
            <mxPoint x="55" y="540" as="sourcePoint" />
            <mxPoint x="68.5" y="200" as="targetPoint" />
          </mxGeometry>
        </mxCell>
        <mxCell id="yI-KKn5nenXHCiCo1QlS-13" value="" style="html=1;points=[];perimeter=orthogonalPerimeter;fillColor=strokeColor;align=left;verticalAlign=top;spacingLeft=10;" parent="yI-KKn5nenXHCiCo1QlS-6" vertex="1">
          <mxGeometry x="52.5" y="190" width="5" height="330" as="geometry" />
        </mxCell>
        <mxCell id="yI-KKn5nenXHCiCo1QlS-14" value=":Exercise List" style="shape=umlLifeline;perimeter=lifelinePerimeter;whiteSpace=wrap;html=1;container=1;dropTarget=0;collapsible=0;recursiveResize=0;outlineConnect=0;portConstraint=eastwest;newEdgeStyle={&quot;edgeStyle&quot;:&quot;elbowEdgeStyle&quot;,&quot;elbow&quot;:&quot;vertical&quot;,&quot;curved&quot;:0,&quot;rounded&quot;:0};" parent="yI-KKn5nenXHCiCo1QlS-6" vertex="1">
          <mxGeometry x="416" y="100" width="100" height="420" as="geometry" />
        </mxCell>
        <mxCell id="yI-KKn5nenXHCiCo1QlS-16" value="" style="html=1;points=[];perimeter=orthogonalPerimeter;fillColor=strokeColor;align=left;verticalAlign=top;spacingLeft=10;" parent="yI-KKn5nenXHCiCo1QlS-6" vertex="1">
          <mxGeometry x="253.5" y="260" width="5" height="10" as="geometry" />
        </mxCell>
        <mxCell id="yI-KKn5nenXHCiCo1QlS-17" value="Click_A_Muscle()" style="html=1;verticalAlign=bottom;labelBackgroundColor=none;endArrow=block;endFill=1;rounded=0;" parent="yI-KKn5nenXHCiCo1QlS-6" edge="1">
          <mxGeometry x="0.0025" width="160" relative="1" as="geometry">
            <mxPoint x="52.5" y="270" as="sourcePoint" />
            <mxPoint x="252.5" y="270" as="targetPoint" />
            <mxPoint as="offset" />
          </mxGeometry>
        </mxCell>
        <mxCell id="yI-KKn5nenXHCiCo1QlS-18" value="View_Exercises()" style="html=1;verticalAlign=bottom;labelBackgroundColor=none;endArrow=none;endFill=0;rounded=0;entryX=0.5;entryY=0.19;entryDx=0;entryDy=0;entryPerimeter=0;startArrow=block;startFill=1;" parent="yI-KKn5nenXHCiCo1QlS-6" edge="1">
          <mxGeometry x="0.0811" width="160" relative="1" as="geometry">
            <mxPoint x="258.5" y="315" as="sourcePoint" />
            <mxPoint x="462" y="315" as="targetPoint" />
            <mxPoint as="offset" />
          </mxGeometry>
        </mxCell>
        <mxCell id="yI-KKn5nenXHCiCo1QlS-19" value=":Back" style="shape=umlLifeline;perimeter=lifelinePerimeter;whiteSpace=wrap;html=1;container=1;dropTarget=0;collapsible=0;recursiveResize=0;outlineConnect=0;portConstraint=eastwest;newEdgeStyle={&quot;edgeStyle&quot;:&quot;elbowEdgeStyle&quot;,&quot;elbow&quot;:&quot;vertical&quot;,&quot;curved&quot;:0,&quot;rounded&quot;:0};" parent="yI-KKn5nenXHCiCo1QlS-6" vertex="1">
          <mxGeometry x="586" y="100" width="100" height="420" as="geometry" />
        </mxCell>
        <mxCell id="tR1SHXSb6-O5huA1Tc_m-1" value="Click_flip()" style="html=1;verticalAlign=bottom;labelBackgroundColor=none;endArrow=block;endFill=1;rounded=0;" parent="yI-KKn5nenXHCiCo1QlS-6" edge="1">
          <mxGeometry x="0.0025" width="160" relative="1" as="geometry">
            <mxPoint x="53.5" y="210" as="sourcePoint" />
            <mxPoint x="253.5" y="210" as="targetPoint" />
            <mxPoint as="offset" />
          </mxGeometry>
        </mxCell>
        <mxCell id="tR1SHXSb6-O5huA1Tc_m-3" value="" style="html=1;points=[];perimeter=orthogonalPerimeter;fillColor=strokeColor;align=left;verticalAlign=top;spacingLeft=10;" parent="yI-KKn5nenXHCiCo1QlS-6" vertex="1">
          <mxGeometry x="462" y="260" width="6.5" height="70" as="geometry" />
        </mxCell>
        <mxCell id="tR1SHXSb6-O5huA1Tc_m-5" value="get_A_Muscle()" style="html=1;verticalAlign=bottom;labelBackgroundColor=none;endArrow=block;endFill=1;rounded=0;" parent="yI-KKn5nenXHCiCo1QlS-6" edge="1">
          <mxGeometry x="0.0025" width="160" relative="1" as="geometry">
            <mxPoint x="258.5" y="280" as="sourcePoint" />
            <mxPoint x="460" y="280" as="targetPoint" />
            <mxPoint as="offset" />
          </mxGeometry>
        </mxCell>
        <mxCell id="tR1SHXSb6-O5huA1Tc_m-7" value="" style="html=1;points=[];perimeter=orthogonalPerimeter;fillColor=strokeColor;align=left;verticalAlign=top;spacingLeft=10;" parent="yI-KKn5nenXHCiCo1QlS-6" vertex="1">
          <mxGeometry x="253.5" y="310" width="5" height="40" as="geometry" />
        </mxCell>
        <mxCell id="tR1SHXSb6-O5huA1Tc_m-9" value="" style="html=1;points=[];perimeter=orthogonalPerimeter;fillColor=strokeColor;align=left;verticalAlign=top;spacingLeft=10;" parent="yI-KKn5nenXHCiCo1QlS-6" vertex="1">
          <mxGeometry x="633.5" y="265" width="5" height="50" as="geometry" />
        </mxCell>
        <mxCell id="tR1SHXSb6-O5huA1Tc_m-14" value="ApplyFilter()" style="html=1;verticalAlign=bottom;labelBackgroundColor=none;endArrow=none;endFill=0;rounded=0;startArrow=block;startFill=1;" parent="yI-KKn5nenXHCiCo1QlS-6" edge="1">
          <mxGeometry x="0.0811" width="160" relative="1" as="geometry">
            <mxPoint x="472" y="300" as="sourcePoint" />
            <mxPoint x="633.5" y="300" as="targetPoint" />
            <mxPoint as="offset" />
          </mxGeometry>
        </mxCell>
      </root>
    </mxGraphModel>
  </diagram>
</mxfile>
